<?xml version="1.0" encoding="utf-8"?>
<svg version="1.1" width="385" height="345" xmlns="http://www.w3.org/2000/svg">
  <defs/>
  <path d="M 1.459 7.295 C 128.509 7.295 255.559 7.295 386.459 7.295 C 386.459 121.145 386.459 234.995 386.459 352.295 C 259.409 352.295 132.359 352.295 1.459 352.295 C 1.459 238.445 1.459 124.595 1.459 7.295 Z" style="paint-order: stroke; fill: rgb(79, 128, 98);"/>
  <path d="M 195.377 31 C 195.377 58.416 194.694 70.639 194.763 72.241 C 194.397 71.782 130.47 170.363 128.682 172.474 C 127.669 177.159 128.299 167.569 128.406 172.343 C 135.744 168.342 195.436 131.949 195.429 132.018 C 195.401 132.306 195.297 132.08 195.377 132 C 195.377 143.88 195.377 155.76 195.377 168 C 191.272 169.98 147.652 193.816 143.118 196.454 C 138.761 198.967 74.391 234.477 72.022 235 C 71.831 223.874 72.886 201.635 72.921 201.51 C 72.951 201.403 72.891 201.523 72.867 201.599 C 72.867 201.651 155.057 87.862 154.978 87.862 C 154.978 83.242 154.697 84.925 155.186 86.806 C 155.671 88.673 70.785 136.191 70.866 139.685 C 70.978 144.506 72.022 110.24 72.022 98 C 79.279 95 195.714 31 195.377 31 Z" style="fill: rgb(230, 194, 0);"/>
  <path d="M 199.987 177.135 C 202.044 178.183 228.461 193.054 227.833 193.115 C 227.806 193.118 220.337 287.307 221.651 275.816 C 221.964 273.081 223.53 285.57 223.542 286.617 C 224.968 287.551 179.681 299.287 180.602 299.613 C 214.54 274.044 282.967 228.474 287.477 228.625 C 287.469 227.946 313.417 243.497 315.834 244.276 C 315.511 245.282 204.006 316.276 204.018 317.324 C 199.007 317.519 179.657 299.961 179.625 299.998 C 179.688 300.004 180.123 301.358 180.114 301.246 C 180.981 300.75 187.826 211.372 188.201 212.964 C 188.19 211.946 195.062 216.904 194.247 216.613 C 189.199 217.301 115.27 261.491 112.004 263.759 C 105.355 261.434 82.318 246.458 77.127 243.712 C 77.118 243.034 77.163 244.154 77.155 243.456 C 76.487 243.433 77.948 243.793 77.259 243.771 C 77.809 241.928 75.774 245.709 77.203 243.51 C 78.851 242.811 194.369 175.397 199.987 177.135 Z" style="fill: rgb(230, 194, 0); transform-origin: 199.931px 245.702px;"/>
  <path d="M 202.265 30.999 C 207.469 33.656 316.713 98.88 317.377 99.218 C 317.377 111.056 317.377 122.893 317.377 135.09 C 312.933 133.577 221.538 80.403 218.849 79.29 C 218.908 81.408 219.062 89.739 219.544 92.635 C 220.172 92.827 272.706 123.414 275.429 125.313 C 281.665 129.494 316.693 149.697 318.352 150.036 C 318.352 161.874 318.352 173.711 318.352 185.907 C 314.275 185.074 244.543 143.941 241.023 141.722 C 235.412 138.245 219.864 128.792 217.874 128.115 C 217.595 132.954 217.603 137.366 218.849 142.065 C 222.083 145.04 311.397 196.498 315.425 198.861 C 316.069 199.19 316.713 199.518 317.377 199.857 C 317.377 211.695 317.377 223.532 317.377 235.728 C 307.456 232.351 205.192 170.961 202.265 168.968 C 201.906 166.591 202.2 47.949 202.265 30.999 Z" style="fill: rgb(230, 194, 0);"/>
</svg>